<mxfile host="app.diagrams.net" modified="2021-07-14T13:51:21.327Z" agent="5.0 (Macintosh; Intel Mac OS X 10_15_7) AppleWebKit/537.36 (KHTML, like Gecko) Chrome/91.0.4472.114 Safari/537.36" etag="y-eI-dbg_cvsjdST1adX" version="14.8.5" type="github">
  <diagram id="yias4sb7J8hYHUPb65KZ" name="Page-1">
    <mxGraphModel dx="1298" dy="834" grid="1" gridSize="10" guides="1" tooltips="1" connect="1" arrows="1" fold="1" page="1" pageScale="1" pageWidth="850" pageHeight="1100" math="0" shadow="0">
      <root>
        <mxCell id="0" />
        <mxCell id="1" parent="0" />
        <mxCell id="4l75_FC21fDWyVRXeLxh-2" value="a&lt;sub style=&quot;font-size: 20px;&quot;&gt;0&lt;/sub&gt;" style="whiteSpace=wrap;html=1;aspect=fixed;fontSize=20;" vertex="1" parent="1">
          <mxGeometry x="80" y="280" width="40" height="40" as="geometry" />
        </mxCell>
        <mxCell id="4l75_FC21fDWyVRXeLxh-3" value="a&lt;sub style=&quot;font-size: 20px;&quot;&gt;1&lt;/sub&gt;" style="whiteSpace=wrap;html=1;aspect=fixed;fontSize=20;" vertex="1" parent="1">
          <mxGeometry x="200" y="280" width="40" height="40" as="geometry" />
        </mxCell>
        <mxCell id="4l75_FC21fDWyVRXeLxh-4" value="a&lt;sub style=&quot;font-size: 20px;&quot;&gt;2&lt;/sub&gt;" style="whiteSpace=wrap;html=1;aspect=fixed;fontSize=20;" vertex="1" parent="1">
          <mxGeometry x="320" y="280" width="40" height="40" as="geometry" />
        </mxCell>
        <mxCell id="4l75_FC21fDWyVRXeLxh-5" value="a&lt;sub style=&quot;font-size: 20px;&quot;&gt;3&lt;/sub&gt;" style="whiteSpace=wrap;html=1;aspect=fixed;fontSize=20;" vertex="1" parent="1">
          <mxGeometry x="440" y="340" width="40" height="40" as="geometry" />
        </mxCell>
        <mxCell id="4l75_FC21fDWyVRXeLxh-6" value="a&lt;sub style=&quot;font-size: 20px;&quot;&gt;4&lt;/sub&gt;" style="whiteSpace=wrap;html=1;aspect=fixed;fontSize=20;" vertex="1" parent="1">
          <mxGeometry x="560" y="400" width="40" height="40" as="geometry" />
        </mxCell>
        <mxCell id="4l75_FC21fDWyVRXeLxh-8" value="+" style="ellipse;whiteSpace=wrap;html=1;aspect=fixed;fontSize=20;" vertex="1" parent="1">
          <mxGeometry x="140" y="280" width="40" height="40" as="geometry" />
        </mxCell>
        <mxCell id="4l75_FC21fDWyVRXeLxh-17" value="=" style="ellipse;whiteSpace=wrap;html=1;aspect=fixed;fontSize=20;" vertex="1" parent="1">
          <mxGeometry x="260" y="280" width="40" height="40" as="geometry" />
        </mxCell>
        <mxCell id="4l75_FC21fDWyVRXeLxh-18" value="a&lt;sub style=&quot;font-size: 20px;&quot;&gt;1&lt;/sub&gt;" style="whiteSpace=wrap;html=1;aspect=fixed;fontSize=20;" vertex="1" parent="1">
          <mxGeometry x="200" y="340" width="40" height="40" as="geometry" />
        </mxCell>
        <mxCell id="4l75_FC21fDWyVRXeLxh-19" value="a&lt;sub style=&quot;font-size: 20px;&quot;&gt;2&lt;/sub&gt;" style="whiteSpace=wrap;html=1;aspect=fixed;fontSize=20;" vertex="1" parent="1">
          <mxGeometry x="320" y="340" width="40" height="40" as="geometry" />
        </mxCell>
        <mxCell id="4l75_FC21fDWyVRXeLxh-20" value="=" style="ellipse;whiteSpace=wrap;html=1;aspect=fixed;fontSize=20;" vertex="1" parent="1">
          <mxGeometry x="380" y="340" width="40" height="40" as="geometry" />
        </mxCell>
        <mxCell id="4l75_FC21fDWyVRXeLxh-21" value="+" style="ellipse;whiteSpace=wrap;html=1;aspect=fixed;fontSize=20;" vertex="1" parent="1">
          <mxGeometry x="260" y="340" width="40" height="40" as="geometry" />
        </mxCell>
        <mxCell id="4l75_FC21fDWyVRXeLxh-27" value="a&lt;sub style=&quot;font-size: 20px;&quot;&gt;3&lt;/sub&gt;" style="whiteSpace=wrap;html=1;aspect=fixed;fontSize=20;" vertex="1" parent="1">
          <mxGeometry x="440" y="400" width="40" height="40" as="geometry" />
        </mxCell>
        <mxCell id="4l75_FC21fDWyVRXeLxh-28" value="a&lt;sub style=&quot;font-size: 20px;&quot;&gt;2&lt;/sub&gt;" style="whiteSpace=wrap;html=1;aspect=fixed;fontSize=20;" vertex="1" parent="1">
          <mxGeometry x="320" y="400" width="40" height="40" as="geometry" />
        </mxCell>
        <mxCell id="4l75_FC21fDWyVRXeLxh-29" value="=" style="ellipse;whiteSpace=wrap;html=1;aspect=fixed;fontSize=20;" vertex="1" parent="1">
          <mxGeometry x="500" y="400" width="40" height="40" as="geometry" />
        </mxCell>
        <mxCell id="4l75_FC21fDWyVRXeLxh-30" value="+" style="ellipse;whiteSpace=wrap;html=1;aspect=fixed;fontSize=20;" vertex="1" parent="1">
          <mxGeometry x="380" y="400" width="40" height="40" as="geometry" />
        </mxCell>
      </root>
    </mxGraphModel>
  </diagram>
</mxfile>
